Results
version=1
nRows=14
nColumns=24
inDegrees=yes
endheader
time	pelvis_tilt	pelvis_list	pelvis_rotation	pelvis_tx	pelvis_ty	pelvis_tz	hip_flexion_r	hip_adduction_r	hip_rotation_r	knee_angle_r	ankle_angle_r	subtalar_angle_r	mtp_angle_r	hip_flexion_l	hip_adduction_l	hip_rotation_l	knee_angle_l	ankle_angle_l	subtalar_angle_l	mtp_angle_l	lumbar_extension	lumbar_bending	lumbar_rotation
      1.58416667	     -7.37012211	      6.32393468	     -2.50569178	      0.46582662	      0.98785293	      0.29697840	     22.24782689	     -7.55929717	      1.19352030	    -67.79449697	     -3.39688644	    -11.32875192	      1.94728449	     16.83907744	     11.14743820	     -1.34901834	     -9.60439658	     -0.64663586	    -12.66677222	      0.17706359	      6.02019906	     -3.97857587	      7.06532973
      1.58833333	     -7.32467794	      6.26332304	     -2.38823204	      0.47042993	      0.98844749	      0.29670694	     22.85951168	     -7.45307044	      1.19814139	    -67.72831909	     -2.81782351	    -11.62370832	      1.91450878	     16.35753480	     11.14968579	     -1.19179766	     -9.37628522	     -0.54652699	    -12.60803014	      0.17015136	      5.91001717	     -3.93564451	      6.93019535
      1.59250000	     -7.28666407	      6.21069784	     -2.26277385	      0.47502850	      0.98899615	      0.29642562	     23.46933008	     -7.35794447	      1.20416669	    -67.62026979	     -2.24165303	    -11.87926107	      1.88082919	     15.88611901	     11.15980917	     -1.02993558	     -9.15102374	     -0.44814441	    -12.54814237	      0.16250771	      5.80849562	     -3.90018744	      6.78493500
      1.59666667	     -7.23194090	      6.15317993	     -2.13537605	      0.47962439	      0.98954796	      0.29615445	     24.04628737	     -7.25900152	      1.20615505	    -67.46005123	     -1.67821464	    -12.09014724	      1.84416798	     15.39725825	     11.16304258	     -0.86858197	     -8.92694328	     -0.34893716	    -12.48843288	      0.15330681	      5.68772830	     -3.86263472	      6.62855251
      1.60083333	     -7.19011089	      6.08675030	     -2.00501243	      0.48420598	      0.99006084	      0.29589430	     24.62371619	     -7.14782555	      1.21036912	    -67.24930244	     -1.12912171	    -12.25183978	      1.80965338	     14.92604256	     11.15299911	     -0.70375340	     -8.71001004	     -0.24489348	    -12.42621651	      0.14408663	      5.58246257	     -3.81386367	      6.47554594
      1.60500000	     -7.15170072	      6.02751296	     -1.86711003	      0.48877814	      0.99053346	      0.29562210	     25.19388801	     -7.04932648	      1.21194174	    -66.99585085	     -0.59145902	    -12.36902819	      1.77633406	     14.46262693	     11.15021238	     -0.53225037	     -8.49875931	     -0.14046215	    -12.36109968	      0.13456720	      5.48128371	     -3.77344915	      6.31895634
      1.60916667	     -7.12109783	      5.97306676	     -1.72575139	      0.49333603	      0.99094399	      0.29536078	     25.76467819	     -6.95596859	      1.21663641	    -66.70662628	     -0.06055580	    -12.44324021	      1.74348311	     14.01353092	     11.14945472	     -0.36014874	     -8.29723774	     -0.02990545	    -12.30084641	      0.12448073	      5.38770204	     -3.73980397	      6.15414423
      1.61333333	     -7.07733410	      5.92236931	     -1.58012235	      0.49789631	      0.99136538	      0.29509663	     26.30502046	     -6.87054541	      1.21970139	    -66.36678703	      0.45339635	    -12.47131724	      1.70640894	     13.55075446	     11.15233918	     -0.18301103	     -8.09684591	      0.07440064	    -12.24474697	      0.11142812	      5.27802929	     -3.71217268	      5.96997327
      1.61750000	     -7.05364357	      5.85259838	     -1.42647888	      0.50244986	      0.99173113	      0.29483325	     26.84730531	     -6.76627309	      1.21378111	    -65.97383786	      0.93486781	    -12.47072712	      1.67687070	     13.11531209	     11.13256812	      0.00140185	     -7.90975312	      0.18941102	    -12.18481386	      0.10073108	      5.19601753	     -3.66437910	      5.81168387
      1.62166667	     -6.99742271	      5.79165224	     -1.27140539	      0.50700734	      0.99212114	      0.29457453	     27.33989908	     -6.67595405	      1.20713416	    -65.53714306	      1.41287230	    -12.43716709	      1.64681734	     12.64482619	     11.12089534	      0.18714261	     -7.72134319	      0.30549459	    -12.12400934	      0.08875599	      5.07429548	     -3.62558892	      5.63163114
      1.62583333	     -6.96659392	      5.73581527	     -1.11537796	      0.51157179	      0.99243682	      0.29429940	     27.85003574	     -6.59827980	      1.19538647	    -65.06232359	      1.83413952	    -12.38922010	      1.62531969	     12.19961860	     11.11253799	      0.36539866	     -7.52634058	      0.43020802	    -12.06294820	      0.07986112	      5.00285021	     -3.57283234	      5.48235292
      1.63000000	     -6.91868279	      5.67379367	     -0.94670194	      0.51607735	      0.99275961	      0.29404188	     28.32368026	     -6.50834611	      1.19246504	    -64.53973245	      2.27973804	    -12.28830163	      1.59257018	     11.75807277	     11.09706635	      0.57687439	     -7.37343974	      0.54292481	    -12.02241622	      0.06390012	      4.86574564	     -3.55059797	      5.25359849
      1.63416667	     -6.88392307	      5.62674969	     -0.77983558	      0.52060798	      0.99302454	      0.29377533	     28.80124467	     -6.44272920	      1.18523585	    -63.98290561	      2.67018458	    -12.18492417	      1.55956082	     11.32210958	     11.09502722	      0.78077671	     -7.20207611	      0.66092499	    -11.98219680	      0.04709048	      4.76821563	     -3.52633129	      5.04998824
      1.63833333	     -6.82119783	      5.57717118	     -0.62035568	      0.52514673	      0.99331202	      0.29351238	     29.23198807	     -6.37797273	      1.17676182	    -63.37802837	      3.01311349	    -12.04086881	      1.49880662	     10.84929877	     11.08820934	      0.98501264	     -7.01540363	      0.78021633	    -11.95932812	      0.01498706	      4.63600625	     -3.48702148	      4.75849018
